# xmcd
#
# Track frame offsets:
#	150
#	9495
#	22716
#	34050
#	49699
#	61917
#	74262
#	86115
#	96496
#	108953
#	120518
#	132925
#	144959
#	154210
#	167538
#	181429
#	192358
#	205593
#	217802
#	230313
#	240076
#	251991
#	266932
#	281015
#	293412
#
# Disc length: 4072 seconds
# Revision: 2
# Processed by: cddbd v1.5.2PL0 Copyright (c) Steve Scherf et al.
# Submitted via: dBpowerAMP V12.0
#
DISCID=570fe619
DTITLE=Various Artist - Yodellin' Crazy
DYEAR=2005
DGENRE=Country
TTITLE0=Rex Allen - Yodellin' Crazy
TTITLE1=Montana Slim - Red River Valley Blues
TTITLE2=Elton Britt - That's How the Yodel Was Born
TTITLE3=Jimmie Rodgers - Blue Yodel
TTITLE4=Hank Snow - Lonesome Blue Yodel
TTITLE5=Slim Whitman - I'm Casting My Lasso Towards the Sky
TTITLE6=Rosalie Allen - Yodel Boogie
TTITLE7=Eddy Arnold - Cattle Call
TTITLE8=Bill Haley - Yodel Your Blues Away
TTITLE9=Hank Williams - Long Gone Lonesome Blues
TTITLE10=Tex Morton - Big Rock Candy Mountain
TTITLE11=Bill Monroe - Mule Skinner Blues
TTITLE12=Kenny Roberts - She Taught Me How to Yodel
TTITLE13=Gene Autry - A Yodelling Hobo
TTITLE14=Cliff Carlisle - Hobo Blues
TTITLE15=Montana Slim - Rootin' Tootin' Cowboy
TTITLE16=Rosalie Allen - I Want to Be a Cowboy's Sweetheart
TTITLE17=Tex Morton - My Sweetheart's in Love With a Swiss Mountaineer
TTITLE18=Riley Puckett - Back on the Texas Plains
TTITLE19=Rex Allen - Happy Yodellin' Man
TTITLE20=Harry Torrani - Happy and Free Yodel
TTITLE21=Jimmie Rodgers - In the Jailhouse Now
TTITLE22=Slim Clark - Take Me Back to Old Montana
TTITLE23=Bill Haley - A Yodeller's Lullaby
TTITLE24=Roy Rogers - Heading for Texas and Home
EXTD=
EXTT0=
EXTT1=
EXTT2=
EXTT3=
EXTT4=
EXTT5=
EXTT6=
EXTT7=
EXTT8=
EXTT9=
EXTT10=
EXTT11=
EXTT12=
EXTT13=
EXTT14=
EXTT15=
EXTT16=
EXTT17=
EXTT18=
EXTT19=
EXTT20=
EXTT21=
EXTT22=
EXTT23=
EXTT24=
PLAYORDER=
